<svg id="Layer_1" xmlns="http://www.w3.org/2000/svg" viewBox="0 0 466 99"><style>.st0{fill:#6dc8f1}.st1{fill:#fff}</style><path id="Shape" class="st0" d="M145.2 74.3c0 8.2-2.8 13.9-8.3 17.2-5.3 3.2-9.8 5-13.6 5.4V86.8c2.4-.7 4.8-1.6 7-2.8 2.6-1.7 4.1-4.7 4-7.8V23.8h10.9v50.5zm.2-64.1c0 1.5-.6 2.8-1.6 3.8-1.1 1-2.5 1.6-4 1.6-1.4 0-2.8-.5-3.8-1.6-1.1-1-1.6-2.4-1.6-3.9s.5-2.9 1.6-4c1-1.1 2.4-1.7 3.8-1.7 1.5 0 2.9.6 4 1.7s1.7 2.6 1.6 4.1z"/><path id="Shape_1_" class="st0" d="M186.1 72.7h-10.3v-1.4c-1.7 1.5-4.9 2.2-9.7 2.2-5.2 0-9.5-1.5-12.8-4.6-3.7-3.3-5.5-7.8-5.5-13.5-.1-4.7 2.1-9.2 5.9-11.9 3.7-2.7 8.3-4.1 12.9-4 2.9 0 5.7.5 8.4 1.6 0-1.3-.2-2.7-.8-3.9-1.1-2.6-3.6-4.4-6.4-4.6-5.3-.4-10.4 1.9-13.7 6.1l-3-10.3c4.6-3.8 10.4-5.8 16.4-5.7 5.2 0 9.5 1.4 12.9 4.3 3.8 3.1 5.7 7.5 5.7 13.1v32.6zm-10.8-10.8V50.6c-2.8-1.4-5.9-2.1-9.1-2.1-5.2 0-7.8 2.3-7.8 7 0 5.7 2.7 8.6 8.1 8.6 3.1 0 6.1-.8 8.8-2.2z"/><path id="Shape_2_" class="st0" d="M193 30c3.5-5.5 8.8-8 16.1-7.4 4.7.4 7.7 1.4 9.2 2.9V9.7l10.6-5.1v68.1h-10.6v-1.4c-2.8 1.7-6.1 2.6-9.4 2.6-7 0-12.2-2.6-15.7-7.8-3.1-4.5-4.6-10.6-4.5-18.1.1-7.7 1.6-13.7 4.3-18zm8.7 28.5c1.7 3.5 4.1 5.4 7.4 5.5 3.3.2 6.6-1 9-3.3V36c-2.1-2.3-5.2-3.6-8.3-3.5-3.6-.1-6.8 2-8.3 5.2-1.6 3.2-2.3 6.8-2 10.3 0 3.6.8 7.2 2.2 10.5z"/><path id="Shape_3_" class="st0" d="M272 52.7h-28.7c.7 7.4 3.7 11.1 9.2 11.1 4.9 0 7.9-2.3 9.2-6.8l8.7 5.4c-3.3 7.4-9.3 11.1-17.9 11.1-13.5 0-20.2-8.5-20.2-25.6 0-6.9 1.3-12.4 3.8-16.7 3.3-5.8 8.8-8.7 16.4-8.7 8.5 0 14.2 3.5 17.1 10.6 1.8 4.4 2.6 10.9 2.4 19.6zm-10.6-9.8c0-6.9-3-10.4-8.9-10.4-6.3 0-9.4 3.5-9.4 10.4h18.3z"/><path id="Shape_4_" class="st0" d="M277 30c3.5-5.5 8.8-8 16.1-7.4 4.7.4 7.7 1.4 9.2 2.9V9.7l10.6-5.1v68.1h-10.6v-1.4c-2.8 1.7-6.1 2.6-9.4 2.6-7 0-12.2-2.6-15.7-7.8-3.1-4.5-4.6-10.6-4.5-18.1.2-7.7 1.6-13.7 4.3-18zm8.7 28.5c1.7 3.5 4.1 5.4 7.4 5.5 3.3.2 6.6-1 9-3.3V36c-2.1-2.3-5.2-3.6-8.3-3.5-3.6-.1-6.8 2-8.3 5.2-1.6 3.2-2.3 6.8-2 10.3 0 3.6.8 7.2 2.2 10.5z"/><path id="Shape_5_" class="st1" d="M358.8 48c.1 7.5-1.5 13.6-4.6 18.1-3.5 5.2-8.7 7.8-15.6 7.8-3.3 0-6.6-.9-9.4-2.6v15.5l-10.8 4.7V23.8h10.8v1.7c1.5-1.5 4.4-2.5 8.9-2.9 7.3-.6 12.8 1.9 16.3 7.4 2.9 4.4 4.3 10.4 4.4 18zM348 48c.3-3.5-.4-7.1-2-10.3-1.5-3.2-4.8-5.3-8.4-5.2-3.1-.2-6.2 1.1-8.2 3.5v24.7c2.4 2.4 5.7 3.6 9 3.3 3.3-.1 5.7-2 7.4-5.5 1.4-3.3 2.2-6.9 2.2-10.5z"/><path id="Shape_6_" class="st1" d="M373 10.2c0 1.5-.6 2.9-1.7 3.8-1.1 1-2.5 1.6-4 1.6s-2.9-.5-4-1.6c-1.1-1-1.7-2.4-1.6-3.8 0-3.1 2.5-5.6 5.6-5.6 1.5 0 2.9.6 4 1.7 1 .9 1.7 2.4 1.7 3.9zm-.4 62.5H362V23.8h10.6v48.9z"/><path id="Shape_7_" class="st1" d="M416.9 72.7h-11.1L395 54.6l-10.8 18.1h-10.8l16.4-27-13.3-21.9h11l7.5 12.7 7.8-12.7h10.5l-12.9 21.6z"/><path id="Shape_8_" class="st1" d="M452.2 52.7h-28.7c.7 7.4 3.7 11.1 9.2 11.1 4.9 0 7.9-2.3 9.2-6.8l8.7 5.4c-3.3 7.4-9.3 11.1-17.9 11.1-13.5 0-20.2-8.5-20.2-25.6 0-6.9 1.3-12.4 3.8-16.7 3.3-5.8 8.8-8.7 16.4-8.7 8.5 0 14.2 3.5 17.1 10.6 1.8 4.4 2.6 10.9 2.4 19.6zm-10.6-9.8c0-6.9-3-10.4-8.9-10.4-6.3 0-9.4 3.5-9.4 10.4h18.3z"/><path id="Shape_9_" class="st1" d="M465.4 72.7h-10.8v-63l10.8-5.1z"/><path id="Combined-Shape" class="st0" d="M7.7 0h32.7C44.6 0 48 3.4 48 7.7v32.7c0 4.2-3.4 7.7-7.7 7.7H7.7C3.4 48 0 44.6 0 40.3V7.7C0 3.4 3.4 0 7.7 0zm49 51h32.7c4.2 0 7.7 3.4 7.7 7.7v32.7c0 4.2-3.4 7.7-7.7 7.7H56.7c-4.2 0-7.7-3.4-7.7-7.7V58.7c0-4.3 3.4-7.7 7.7-7.7z"/><path id="Combined-Shape_1_" class="st1" d="M55.4 20h19.3c2.4 0 4.4 2 4.4 4.4v19.3c0 2.4-2 4.4-4.4 4.4H55.4C53 48 51 46 51 43.6V24.4c0-2.4 2-4.4 4.4-4.4zm-33 31h19.3c2.4 0 4.4 2 4.4 4.4v19.3c0 2.4-2 4.4-4.4 4.4H22.4C20 79 18 77 18 74.6V55.4c0-2.4 2-4.4 4.4-4.4z"/></svg>